<svg id="Слой_1" data-name="Слой 1" xmlns="http://www.w3.org/2000/svg" viewBox="0 0 362.42 181.42">
  <defs>
    <style>
      .cls-1, .cls-3 {
        fill: #fff;
      }

      .cls-2 {
        fill: #3751ff;
      }

      .cls-3 {
        font-size: 31.97px;
        font-family: FSRAILWAYBold, FSRAILWAY Bold;
      }

      .cls-4 {
        letter-spacing: -0.01em;
      }

      .cls-5 {
        letter-spacing: 0em;
      }
    </style>
  </defs>
  <title>Безымянный-1</title>
  <g>
    <g>
      <path class="cls-1" d="M244.93,31.34A32,32,0,0,0,216.5,58.63a40.22,40.22,0,0,0,0,8.91,31.94,31.94,0,0,0,14,21.94c.73.48,1.68,1.06,2.13,1.3a4.27,4.27,0,0,1,.82.48,8.35,8.35,0,0,1-1.47.44,80.94,80.94,0,0,0-8.54,2.88,64.14,64.14,0,0,0-28.67,23.79,62.68,62.68,0,0,0-10.39,33.48c0,2.89.1,3.41,1,4.56a5,5,0,0,0,4.36,2.14,3.53,3.53,0,0,0,2-.42,5.43,5.43,0,0,0,3.09-3.93,14.12,14.12,0,0,0,.14-2.14,50.27,50.27,0,0,1,1-9.18,53.18,53.18,0,0,1,45-42.18,54.19,54.19,0,0,1,16.57.4,52.74,52.74,0,0,1,20.22,8.29,14,14,0,0,0,1.35.86s1.77-1.69,3.84-3.76l3.76-3.76-1-.71a65.12,65.12,0,0,0-21.49-10.28c-1.62-.42-1.68-.45-1.37-.63l1.57-.93a32.32,32.32,0,0,0,11.94-12.7A31.7,31.7,0,0,0,274.29,45a32.09,32.09,0,0,0-16.42-12.28,42.21,42.21,0,0,0-5.27-1.22,45.92,45.92,0,0,0-7.67-.18Zm7.32,10.9a20,20,0,0,1,5.23,1.83,21.23,21.23,0,0,1,11.39,14.82,15.91,15.91,0,0,1,.3,4.16,17.31,17.31,0,0,1-1,6.7,21.3,21.3,0,0,1-11.1,12.49,19.47,19.47,0,0,1-8.32,2,20.18,20.18,0,0,1-9.05-1.64,22.31,22.31,0,0,1-9-7.28,22.61,22.61,0,0,1-3.47-8.07,16.51,16.51,0,0,1-.29-4.16,16.51,16.51,0,0,1,.29-4.16,21.43,21.43,0,0,1,5.65-10.64,21.1,21.1,0,0,1,12-6.2,29,29,0,0,1,7.33.19Z"/>
      <path class="cls-2" d="M304.86,100.48a5.73,5.73,0,0,0-1.18.53c-.24.17-10.45,10.31-22.7,22.55L258.71,145.8l-9-9c-5.46-5.45-9.23-9.12-9.59-9.32a5.34,5.34,0,0,0-7.5,2.35,3.71,3.71,0,0,0-.37,2.17c0,2.54-.94,1.41,11.86,14.24,7.33,7.35,11.34,11.27,11.78,11.54a5.29,5.29,0,0,0,5.38.1c.47-.25,7.33-7,25.1-24.81,19.53-19.54,24.52-24.6,24.77-25.12a5.29,5.29,0,0,0-.38-5.5,5.39,5.39,0,0,0-5.9-2Z"/>
      <path class="cls-1" d="M302.41,132.15l-4.08,4.09.48,1.59a53,53,0,0,1,2.29,14,18.82,18.82,0,0,0,.13,2.22,5.29,5.29,0,0,0,3.09,4.07,3.55,3.55,0,0,0,2,.42,5,5,0,0,0,4.36-2.14c.86-1.15,1-1.67,1-4.56a61.87,61.87,0,0,0-4.47-22.08c-.37-1-.69-1.71-.7-1.71l-4.1,4.09Z"/>
    </g>
    <text class="cls-3" transform="translate(51.11 64.58)">Assi<tspan class="cls-4" x="66.37" y="0">s</tspan><tspan class="cls-5" x="81.88" y="0">tant</tspan></text>
  </g>
</svg>
